<?xml version="1.0" encoding="UTF-8" ?>
<!DOCTYPE svg PUBLIC "-//W3C//DTD SVG 1.1//EN" "http://www.w3.org/Graphics/SVG/1.1/DTD/svg11.dtd">
<svg width="1024pt" height="1024pt" viewBox="0 0 1024 1024" version="1.1" xmlns="http://www.w3.org/2000/svg">
<g id="#727cf5ff">
<path fill="#727cf5" opacity="1.00" d=" M 145.19 297.16 C 149.68 286.34 160.34 278.27 172.01 277.09 C 180.01 276.80 188.01 277.02 196.00 277.03 C 202.11 277.23 208.32 276.43 214.35 277.77 C 220.86 278.98 226.91 281.95 232.43 285.53 C 242.82 292.84 249.85 303.68 257.19 313.82 C 274.98 338.05 292.60 362.40 310.46 386.57 C 323.90 405.13 337.83 423.33 350.98 442.10 C 351.51 442.69 352.09 443.26 352.70 443.80 C 376.07 411.51 399.99 379.63 423.32 347.31 C 432.81 334.44 442.16 321.48 451.64 308.61 C 457.03 301.73 461.59 294.06 468.47 288.49 C 475.82 282.58 484.65 278.12 494.13 277.14 C 504.42 276.52 514.73 277.25 525.02 276.83 C 531.91 276.54 539.17 277.11 545.14 280.89 C 557.01 287.30 564.51 301.41 561.92 314.85 C 560.83 323.76 554.67 330.66 549.71 337.72 C 527.30 367.65 504.87 397.56 482.52 427.54 C 460.06 458.03 436.97 488.04 414.57 518.57 C 409.80 525.00 404.34 531.27 402.02 539.09 C 400.60 544.26 400.20 549.66 400.35 555.01 C 400.38 604.00 400.33 653.00 400.37 702.00 C 400.35 712.40 395.62 722.22 389.29 730.25 C 380.02 740.95 366.19 747.39 352.07 747.81 C 339.60 747.45 327.23 742.49 318.38 733.64 C 310.33 725.53 304.80 714.60 304.21 703.09 C 303.66 687.41 303.60 671.70 303.78 656.01 C 304.60 651.01 303.51 646.02 303.68 641.00 C 303.68 609.36 303.74 577.72 303.65 546.08 C 303.40 535.66 296.59 527.27 290.70 519.29 C 245.57 458.16 200.00 397.38 154.51 336.51 C 152.13 333.23 149.63 330.02 147.49 326.57 C 142.19 317.83 141.08 306.59 145.19 297.16 Z" />
<path fill="#727cf5" opacity="1.00" d=" M 824.31 277.23 C 836.32 274.99 849.18 277.81 859.21 284.78 C 867.10 290.63 873.95 298.34 877.18 307.74 C 880.33 315.42 880.14 323.85 880.02 332.00 C 879.95 404.33 880.11 476.67 880.01 549.00 C 879.98 561.82 880.43 574.70 878.62 587.44 C 875.85 614.38 867.35 640.87 852.92 663.85 C 840.39 683.75 823.94 701.25 804.42 714.43 C 773.41 736.10 735.60 746.81 697.99 747.89 C 693.89 748.40 689.74 748.56 685.66 747.85 C 651.60 747.53 617.73 737.83 588.33 720.67 C 573.11 711.42 558.93 700.26 547.21 686.79 C 525.55 662.42 510.82 631.91 505.40 599.74 C 502.47 583.34 501.76 566.64 501.98 550.00 C 502.03 535.00 501.95 520.00 502.06 505.00 C 502.18 498.27 502.34 491.06 506.27 485.28 C 512.62 475.46 520.18 466.50 527.01 457.03 C 543.51 435.51 559.80 413.84 576.36 392.37 C 579.04 388.71 583.05 385.10 587.97 385.97 C 594.45 386.28 598.08 393.10 598.01 398.96 C 597.99 455.32 597.99 511.68 598.01 568.03 C 599.04 586.95 605.37 605.82 617.26 620.71 C 630.77 638.53 651.13 651.10 673.18 654.95 C 685.84 657.91 698.97 656.70 711.66 654.62 C 730.06 650.51 747.36 641.08 760.43 627.45 C 773.38 612.94 782.65 594.60 784.34 575.05 C 785.30 568.75 785.10 562.35 784.93 556.01 C 784.95 480.34 784.88 404.67 784.89 329.00 C 784.68 323.16 785.15 317.28 786.68 311.63 C 791.40 294.28 806.66 280.48 824.31 277.23 Z" />
</g>
</svg>
