<?xml version="1.0" encoding="UTF-8" ?>
<!DOCTYPE svg PUBLIC "-//W3C//DTD SVG 1.1//EN" "http://www.w3.org/Graphics/SVG/1.1/DTD/svg11.dtd">
<svg width="1024pt" height="1024pt" viewBox="0 0 1024 1024" version="1.1" xmlns="http://www.w3.org/2000/svg">
<g id="#727cf5ff">
<path fill="#727cf5" opacity="1.00" d=" M 717.44 332.48 C 729.79 329.05 743.74 331.28 754.17 338.83 C 766.23 347.40 773.44 362.18 773.08 376.94 C 773.07 430.63 773.17 484.32 773.02 538.01 C 773.02 572.74 761.31 607.43 739.60 634.60 C 728.10 648.80 714.21 661.16 698.44 670.43 C 684.16 678.51 668.76 684.86 652.59 687.89 C 613.54 695.81 571.28 689.01 537.59 667.40 C 526.39 659.88 515.62 651.47 506.75 641.24 C 494.63 627.58 484.35 612.00 478.30 594.69 C 472.17 577.47 468.36 559.31 468.35 541.00 C 468.38 515.00 468.40 489.00 468.34 463.00 C 468.43 458.59 467.81 453.91 469.75 449.79 C 472.15 444.81 477.26 440.80 482.96 440.91 C 491.02 440.39 498.62 447.79 498.01 455.93 C 497.87 479.28 498.45 502.64 497.88 526.00 C 497.72 540.94 497.76 556.10 501.56 570.66 C 505.58 586.18 512.43 601.06 522.18 613.83 C 532.59 627.78 546.40 638.92 561.42 647.58 C 595.33 665.99 637.82 666.75 672.87 650.97 C 713.92 632.30 741.96 588.99 743.38 544.07 C 743.85 490.05 743.29 436.03 743.59 382.01 C 743.56 375.99 744.35 368.98 739.74 364.29 C 734.78 358.31 724.87 358.02 719.36 363.38 C 715.36 366.66 714.37 372.10 714.50 377.01 C 714.69 425.34 714.51 473.67 714.54 522.00 C 714.45 533.83 715.23 545.84 712.43 557.45 C 708.76 576.58 699.02 594.47 684.88 607.87 C 678.64 613.43 672.12 618.80 664.69 622.71 C 632.98 639.68 591.54 635.97 563.32 613.68 C 549.54 603.34 539.27 588.73 533.26 572.66 C 528.47 559.69 526.79 545.77 527.20 532.00 C 526.42 499.34 527.15 466.65 526.75 433.99 C 526.78 428.61 523.90 423.49 519.34 420.67 C 513.97 416.99 507.17 417.66 501.00 417.59 C 474.94 417.70 448.87 417.23 422.83 417.86 C 422.23 423.89 422.74 429.95 422.66 436.00 C 422.62 499.00 422.63 562.00 422.56 625.00 C 422.29 635.59 423.36 646.37 420.87 656.77 C 418.07 669.00 409.53 679.56 398.65 685.63 C 388.54 690.90 376.27 692.34 365.37 688.72 C 355.62 685.65 346.86 679.29 341.35 670.64 C 336.50 663.43 334.38 654.66 334.33 646.06 C 334.41 588.04 334.38 530.02 334.37 472.00 C 334.21 453.94 334.72 435.86 334.16 417.81 C 323.79 417.24 313.38 417.81 303.00 417.59 C 294.07 417.31 284.86 418.59 276.20 415.77 C 264.96 412.49 255.39 404.13 250.38 393.58 C 245.74 384.42 245.02 373.50 247.76 363.67 C 251.86 350.17 262.32 338.47 275.71 333.71 C 282.85 331.15 290.54 331.54 298.00 331.55 C 370.67 331.58 443.33 331.50 515.99 331.61 C 538.13 331.65 556.61 352.35 556.56 374.03 C 556.60 411.35 556.70 448.68 556.39 486.00 C 556.66 499.66 556.60 513.33 556.53 527.00 C 556.59 536.25 556.19 545.64 558.55 554.67 C 561.48 568.13 569.02 580.56 579.65 589.33 C 592.80 600.47 610.55 606.22 627.73 604.35 C 639.85 602.79 651.68 597.99 660.94 589.93 C 675.91 577.16 685.00 557.75 684.94 538.03 C 685.15 483.00 684.98 427.96 685.00 372.94 C 685.55 354.29 699.54 337.29 717.44 332.48 M 286.42 360.65 C 280.06 362.16 275.38 368.50 275.65 375.00 C 275.79 382.00 281.81 388.61 288.99 388.50 C 308.00 388.78 327.01 388.43 346.02 388.67 C 352.08 388.53 357.78 391.97 360.96 397.05 C 364.22 402.05 364.02 408.27 364.15 414.01 C 364.14 453.00 364.44 492.01 363.94 531.00 C 364.51 558.33 364.10 585.66 364.10 613.00 C 363.53 624.34 364.29 635.69 364.17 647.05 C 363.92 652.44 367.09 657.68 371.94 660.04 C 378.32 663.57 386.95 660.59 390.53 654.42 C 393.58 649.86 392.76 644.16 392.84 638.99 C 392.80 566.33 392.78 493.67 392.84 421.01 C 392.92 415.40 392.72 409.77 393.43 404.20 C 394.80 395.45 403.11 388.52 411.98 388.69 C 445.32 388.17 478.67 389.04 512.00 388.45 C 515.82 388.44 519.62 387.03 522.40 384.38 C 527.22 380.15 528.04 372.59 524.93 367.13 C 522.57 362.40 517.16 360.02 512.05 360.22 C 438.01 360.37 363.96 360.37 289.92 360.20 C 288.74 360.24 287.57 360.39 286.42 360.65 Z" />
</g>
</svg>
